<svg width="176" height="39" viewBox="0 0 176 39" fill="none" xmlns="http://www.w3.org/2000/svg">
<path fill-rule="evenodd" clip-rule="evenodd" d="M100 36.7506H108.267V38.2506H100V36.7506ZM109.298 36.7506H117.565V38.2506H109.298V36.7506ZM118.596 36.7506H126.863V38.2506H118.596V36.7506ZM161.991 36.7506H170.258V38.2506H161.991V36.7506ZM132.028 36.0006C132.346 35.9919 132.659 36.0724 132.927 36.2318C133.196 36.3913 133.408 36.6224 133.536 36.8956C133.664 37.1688 133.702 37.4717 133.646 37.7655C133.59 38.0593 133.441 38.3306 133.22 38.5448C132.999 38.759 132.715 38.9063 132.404 38.9678C132.093 39.0293 131.77 39.0023 131.475 38.8902C131.181 38.778 130.929 38.5859 130.751 38.3384C130.573 38.0908 130.479 37.7992 130.478 37.5006C130.475 37.3065 130.513 37.1136 130.589 36.9331C130.665 36.7526 130.778 36.588 130.922 36.4487C131.066 36.3094 131.238 36.1981 131.428 36.1212C131.617 36.0443 131.822 36.0033 132.028 36.0006ZM136.162 36.0006C136.479 35.9919 136.792 36.0724 137.061 36.2318C137.329 36.3913 137.541 36.6224 137.669 36.8956C137.797 37.1688 137.836 37.4717 137.779 37.7655C137.723 38.0593 137.575 38.3306 137.354 38.5448C137.132 38.759 136.848 38.9063 136.537 38.9678C136.226 39.0293 135.903 39.0023 135.609 38.8902C135.314 38.778 135.062 38.5859 134.884 38.3384C134.707 38.0908 134.612 37.7992 134.612 37.5006C134.609 37.3065 134.646 37.1136 134.722 36.9331C134.798 36.7526 134.912 36.588 135.056 36.4487C135.2 36.3094 135.371 36.1981 135.561 36.1212C135.751 36.0443 135.955 36.0033 136.162 36.0006ZM140.295 36.0006C140.612 35.9919 140.926 36.0724 141.194 36.2318C141.463 36.3913 141.675 36.6224 141.803 36.8956C141.931 37.1688 141.969 37.4717 141.913 37.7655C141.856 38.0593 141.708 38.3306 141.487 38.5448C141.266 38.759 140.981 38.9063 140.671 38.9678C140.36 39.0293 140.036 39.0023 139.742 38.8902C139.447 38.778 139.195 38.5859 139.018 38.3384C138.84 38.0908 138.745 37.7992 138.745 37.5006C138.739 37.1087 138.899 36.7306 139.19 36.4493C139.48 36.1681 139.878 36.0067 140.295 36.0006ZM149.593 36.0006C149.911 35.9919 150.224 36.0724 150.492 36.2318C150.761 36.3913 150.973 36.6224 151.101 36.8956C151.229 37.1688 151.267 37.4717 151.211 37.7655C151.155 38.0593 151.006 38.3306 150.785 38.5448C150.564 38.759 150.28 38.9063 149.969 38.9678C149.658 39.0293 149.335 39.0023 149.04 38.8902C148.746 38.778 148.494 38.5859 148.316 38.3384C148.138 38.0908 148.044 37.7992 148.043 37.5006C148.04 37.3065 148.078 37.1136 148.154 36.9331C148.23 36.7526 148.343 36.588 148.487 36.4487C148.631 36.3094 148.803 36.1981 148.993 36.1212C149.182 36.0443 149.387 36.0033 149.593 36.0006ZM158.891 36.0006C159.209 35.9919 159.522 36.0724 159.791 36.2318C160.059 36.3913 160.271 36.6224 160.399 36.8956C160.527 37.1688 160.565 37.4717 160.509 37.7655C160.453 38.0593 160.305 38.3306 160.083 38.5448C159.862 38.759 159.578 38.9063 159.267 38.9678C158.956 39.0293 158.633 39.0023 158.338 38.8902C158.044 38.778 157.792 38.5859 157.614 38.3384C157.437 38.0908 157.342 37.7992 157.342 37.5006C157.338 37.3065 157.376 37.1136 157.452 36.9331C157.528 36.7526 157.642 36.588 157.785 36.4487C157.929 36.3094 158.101 36.1981 158.291 36.1212C158.481 36.0443 158.685 36.0033 158.891 36.0006ZM173.357 36.0006C173.675 35.9919 173.988 36.0724 174.256 36.2318C174.525 36.3913 174.737 36.6224 174.865 36.8956C174.993 37.1688 175.031 37.4717 174.975 37.7655C174.919 38.0593 174.77 38.3306 174.549 38.5448C174.328 38.759 174.044 38.9063 173.733 38.9678C173.422 39.0293 173.098 39.0023 172.804 38.8902C172.51 38.778 172.257 38.5859 172.08 38.3384C171.902 38.0908 171.807 37.7992 171.807 37.5006C171.801 37.1087 171.961 36.7306 172.252 36.4493C172.542 36.1681 172.94 36.0067 173.357 36.0006Z" fill="#FF438A"/>
<path fill-rule="evenodd" clip-rule="evenodd" d="M74.8887 26.94C74.8881 26.9626 74.8857 26.9851 74.8815 27.0072C74.6173 28.0636 70.0019 27.7506 64.6348 26.6212L64.3435 23.888L59.4886 22.5474L58.1255 24.931C52.7578 23.2081 48.9874 21.2355 49.2563 20.1599C49.2633 20.1396 49.2714 20.1198 49.2805 20.1004C49.2271 20.0773 49.1977 20.0658 49.1977 20.0658L56.5133 13.0648L61.0889 4.37919C61.0888 4.36227 61.0906 4.34538 61.0944 4.32888C61.234 3.77053 64.0586 3.44208 67.0141 4.23168L67.0448 4.24013L67.738 1.46874C67.6011 1.37404 67.4965 1.24021 67.438 1.08503C67.3796 0.929854 67.3701 0.760689 67.4108 0.600014C67.4337 0.499699 67.4766 0.404943 67.5369 0.321356C67.5973 0.23777 67.6739 0.167038 67.7622 0.11333C67.8506 0.059623 67.9489 0.024033 68.0513 0.0086552C68.1537 -0.00672262 68.2582 -0.00156992 68.3585 0.0238014C68.562 0.0824205 68.7343 0.217628 68.8388 0.400616C68.9433 0.583604 68.9717 0.79989 68.9179 1.00336C68.8787 1.1687 68.786 1.31672 68.654 1.42472C68.522 1.53272 68.3579 1.59474 68.187 1.60127L67.4955 4.36575C70.1158 5.11329 71.7821 6.58878 71.8023 7.13042C71.8667 7.16499 71.9019 7.18419 71.9019 7.18419L71.6833 17.1296L74.9616 26.9483C74.9616 26.9483 74.9365 26.9458 74.8887 26.94ZM64.9721 9.08128C64.4186 9.08784 63.8794 9.25682 63.4224 9.56698C62.9654 9.87714 62.611 10.3146 62.4038 10.8243C62.1966 11.334 62.1458 11.8932 62.2579 12.4315C62.37 12.9698 62.64 13.4631 63.0338 13.8494C63.4276 14.2357 63.9277 14.4977 64.4711 14.6024C65.0145 14.7071 65.577 14.6499 66.0877 14.4379C66.5984 14.2259 67.0346 13.8686 67.3413 13.411C67.648 12.9534 67.8116 12.416 67.8114 11.8663C67.8091 11.4983 67.7339 11.1343 67.59 10.7952C67.4461 10.4561 67.2363 10.1484 66.9726 9.88983C66.709 9.63122 66.3966 9.4267 66.0534 9.28797C65.7101 9.14924 65.3427 9.079 64.9721 9.08128ZM67.9135 23.1774L67.7305 19.8795L67.5783 19.8392C67.2313 19.6567 63.5653 18.6771 62.8661 18.4889C62.1669 18.3007 59.4785 17.6323 59.1265 17.6265L58.9774 17.5881L57.2276 20.2752C53.8596 19.6778 51.4938 19.6356 51.3348 20.2809C51.1578 20.9973 53.754 22.1709 57.598 23.4002L58.8222 21.3565L65.4976 23.2004L65.6369 25.5917C69.7642 26.5328 72.8065 26.8805 72.987 26.1468C73.1456 25.5072 71.0916 24.3548 67.9135 23.1774Z" fill="white"/>
<path fill-rule="evenodd" clip-rule="evenodd" d="M128.327 28.9414C122.083 28.9414 118.753 25.874 118.753 19.8565V4.16426H124.343V18.234C124.343 22.304 125.592 23.4853 128.327 23.4853C131.062 23.4853 132.312 22.304 132.312 18.234V4.16369H137.903V19.8559C137.903 25.874 134.573 28.9414 128.327 28.9414ZM114.948 21.0953C114.948 26.9055 110.488 28.9414 105.7 28.9414C99.9615 28.9414 96.4819 25.7261 96.4819 25.7261L99.2768 21.0646C99.2768 21.0646 102.548 23.8093 105.285 23.8093C106.503 23.8093 108.822 23.6902 108.822 21.4199C108.822 19.649 106.205 18.8538 103.29 17.4075C100.346 15.9632 98.6231 13.691 98.6231 11.1537C98.6231 6.61126 102.668 3.72058 106.621 3.72058C109.33 3.73786 111.975 4.53714 114.234 6.02102L111.975 10.4463C111.975 10.4463 109.536 8.76379 107.008 8.76379C105.105 8.76379 104.095 9.62043 104.095 10.9476C104.095 12.3037 106.414 13.2774 109.209 14.4568C111.944 15.6078 114.948 17.9089 114.948 21.0953ZM87.3039 19.4723H83.9438V28.4996H78.3539V4.16426H87.3039C92.0916 4.16426 95.6894 6.61183 95.6894 11.655C95.6894 16.67 92.0916 19.4723 87.3039 19.4723ZM85.5198 8.58766H83.9438V15.0489H85.5198C87.7204 15.0489 89.8016 14.3114 89.8016 11.8337C89.8016 9.32521 87.7204 8.58766 85.5198 8.58766ZM51.4035 25.8356C51.4035 25.8356 48.4936 28.9414 43.171 28.9414C36.2424 28.9414 29.879 23.3368 29.879 16.3761C29.879 9.38475 36.2126 3.72117 43.171 3.72117C48.4936 3.72117 51.2294 5.96206 51.2294 5.96206L48.8503 10.6831C47.4347 9.70923 45.7551 9.18422 44.0329 9.17732C38.4128 9.17732 35.9447 13.0725 35.9447 16.3166C35.9447 19.5914 38.4128 23.4847 44.0329 23.4847C45.041 23.4805 46.0402 23.2977 46.9836 22.9449L51.4035 25.8356ZM148.247 4.16369H142.657V28.4991H156.694V23.632H148.247V4.16369ZM175.713 4.16369H160.211V28.4991H175.713V23.632H165.8V18.7342H175.356V13.8671H165.8V9.03134H175.713V4.16369Z" fill="white"/>
<path fill-rule="evenodd" clip-rule="evenodd" d="M2.72081 10H0V22.5H6.83055V20H2.72081V10ZM15.1813 10H12.6633L7.84447 22.5H10.7675L11.6504 20H16.1941L17.0767 22.5H20L15.1813 10ZM15.2679 17.5H12.5764L13.9082 13.864L15.2679 17.5Z" fill="white"/>
</svg>
