<svg width="165" height="194" viewBox="0 0 165 194" fill="none" xmlns="http://www.w3.org/2000/svg">
<g clip-path="url(#clip0)">
<g filter="url(#filter0_dd)">
<path d="M85.0762 141.012L85.6077 156.025" stroke="white" stroke-width="2"/>
<path d="M84.0176 141.577L138.873 98.4736" stroke="white" stroke-width="2"/>
<path d="M85.4121 25.0889L127.412 44.0889" stroke="white" stroke-width="2"/>
<path d="M138.492 99.2106L140.001 68.9502" stroke="white" stroke-width="2"/>
<path d="M126.703 43.4297L139.894 69.549" stroke="white" stroke-width="2"/>
<path d="M41.8081 45.5898L25.8301 67.4645" stroke="white" stroke-width="2"/>
<path d="M25.1777 77.8736L26.0002 67" stroke="white" stroke-width="2"/>
<path d="M41.5 45.4995L86.0412 25.0898" stroke="white" stroke-width="2"/>
</g>
<path fill-rule="evenodd" clip-rule="evenodd" d="M90.5009 185.927L94.9687 186.877L90.4359 187.725L89.4805 192.22L88.645 187.76L84.1375 186.859L88.6009 185.872L89.4976 181.388L90.5009 185.927Z" fill="white" fill-opacity="0.9"/>
<path fill-rule="evenodd" clip-rule="evenodd" d="M86.4339 155.587L88.6678 156.062L86.4015 156.486L85.9238 158.733L85.5058 156.504L83.2523 156.053L85.4839 155.559L85.9323 153.317L86.4339 155.587Z" fill="white" fill-opacity="0.9"/>
<path fill-rule="evenodd" clip-rule="evenodd" d="M86.4224 25.1205L88.6562 25.5955L86.3898 26.02L85.9122 28.2673L85.4943 26.0375L83.2406 25.5867L85.4723 25.0933L85.9207 22.8516L86.4224 25.1205Z" fill="white" fill-opacity="0.9"/>
<path fill-rule="evenodd" clip-rule="evenodd" d="M41.7709 45.3631L42.8675 45.5963L41.755 45.8047L41.5205 46.9079L41.3154 45.8133L40.2091 45.592L41.3046 45.3498L41.5247 44.2494L41.7709 45.3631Z" fill="white" fill-opacity="0.9"/>
<path fill-rule="evenodd" clip-rule="evenodd" d="M125.416 42.629L126.512 42.862L125.4 43.0704L125.165 44.1734L124.96 43.0789L123.854 42.8578L124.949 42.6154L125.17 41.5152L125.416 42.629Z" fill="white" fill-opacity="0.9"/>
<path fill-rule="evenodd" clip-rule="evenodd" d="M85.0015 141.057L86.098 141.291L84.9853 141.499L84.7509 142.602L84.546 141.507L83.4396 141.286L84.5351 141.044L84.7552 139.943L85.0015 141.057Z" fill="white" fill-opacity="0.9"/>
<path fill-rule="evenodd" clip-rule="evenodd" d="M139.398 98.3351L140.494 98.568L139.382 98.7765L139.147 99.8795L138.942 98.785L137.836 98.5639L138.931 98.3214L139.152 97.2213L139.398 98.3351Z" fill="white" fill-opacity="0.9"/>
<path fill-rule="evenodd" clip-rule="evenodd" d="M25.5736 77.9619L26.6702 78.195L25.5576 78.4033L25.3231 79.5065L25.118 78.4119L24.0118 78.1906L25.1072 77.9484L25.3273 76.848L25.5736 77.9619Z" fill="white" fill-opacity="0.9"/>
<path fill-rule="evenodd" clip-rule="evenodd" d="M25.728 67.912L26.8245 68.1452L25.712 68.3536L25.4775 69.4567L25.2724 68.3621L24.1661 68.1409L25.2616 67.8986L25.4817 66.7983L25.728 67.912Z" fill="white" fill-opacity="0.9"/>
<path fill-rule="evenodd" clip-rule="evenodd" d="M140.025 68.4631L141.142 68.7005L140.009 68.913L139.77 70.0366L139.561 68.9217L138.434 68.6962L139.55 68.4497L139.774 67.3287L140.025 68.4631Z" fill="white" fill-opacity="0.9"/>
</g>
<defs>
<filter id="filter0_dd" x="0.179688" y="0.177734" width="164.821" height="179.883" filterUnits="userSpaceOnUse" color-interpolation-filters="sRGB">
<feFlood flood-opacity="0" result="BackgroundImageFix"/>
<feColorMatrix in="SourceAlpha" type="matrix" values="0 0 0 0 0 0 0 0 0 0 0 0 0 0 0 0 0 0 127 0"/>
<feOffset/>
<feGaussianBlur stdDeviation="12"/>
<feColorMatrix type="matrix" values="0 0 0 0 1 0 0 0 0 1 0 0 0 0 1 0 0 0 0.25 0"/>
<feBlend mode="normal" in2="BackgroundImageFix" result="effect1_dropShadow"/>
<feColorMatrix in="SourceAlpha" type="matrix" values="0 0 0 0 0 0 0 0 0 0 0 0 0 0 0 0 0 0 127 0"/>
<feOffset/>
<feGaussianBlur stdDeviation="7.5"/>
<feColorMatrix type="matrix" values="0 0 0 0 1 0 0 0 0 1 0 0 0 0 1 0 0 0 0.68 0"/>
<feBlend mode="normal" in2="effect1_dropShadow" result="effect2_dropShadow"/>
<feBlend mode="normal" in="SourceGraphic" in2="effect2_dropShadow" result="shape"/>
</filter>
<clipPath id="clip0">
<rect width="165" height="194" fill="white"/>
</clipPath>
</defs>
</svg>
