<svg width="292" height="263" viewBox="0 0 292 263" fill="none" xmlns="http://www.w3.org/2000/svg">
<g clip-path="url(#clip0)">
<g class='menu-stars'>
<path fill-rule="evenodd" clip-rule="evenodd" d="M237.967 58.6191L235.727 58.1712L237.988 57.7193L238.439 55.4664L238.884 57.6909L241.142 58.1143L238.917 58.6347L238.496 60.8818L237.967 58.6191Z" fill="white" fill-opacity="0.9"/>
<path fill-rule="evenodd" clip-rule="evenodd" d="M194.487 58.8415L190.008 57.9457L194.53 57.0418L195.431 52.5356L196.321 56.9849L200.838 57.8318L196.387 58.8728L195.545 63.3671L194.487 58.8415Z" fill="white" fill-opacity="0.9"/>
<path fill-rule="evenodd" clip-rule="evenodd" d="M38.621 183.632L35.3971 182.987L38.6523 182.336L39.3008 179.093L39.941 182.295L43.193 182.905L39.9891 183.654L39.3828 186.889L38.621 183.632Z" fill="white" fill-opacity="0.9"/>
<path fill-rule="evenodd" clip-rule="evenodd" d="M60.456 199.855L59.2007 199.604L60.4682 199.351L60.7207 198.088L60.97 199.335L62.2363 199.572L60.9888 199.864L60.7526 201.123L60.456 199.855Z" fill="white" fill-opacity="0.9"/>
<path fill-rule="evenodd" clip-rule="evenodd" d="M71.3728 225.045L68.1496 224.4L71.404 223.75L72.0524 220.507L72.6925 223.709L75.9437 224.318L72.7405 225.067L72.1343 228.302L71.3728 225.045Z" fill="white" fill-opacity="0.9"/>
<path fill-rule="evenodd" clip-rule="evenodd" d="M117.782 153.933L115.902 153.557L117.8 153.178L118.178 151.287L118.551 153.154L120.447 153.509L118.579 153.946L118.226 155.832L117.782 153.933Z" fill="white" fill-opacity="0.9"/>
<path fill-rule="evenodd" clip-rule="evenodd" d="M79.8038 149.706L77.4763 149.24L79.8263 148.771L80.2945 146.429L80.7567 148.741L83.1045 149.181L80.7914 149.722L80.3537 152.058L79.8038 149.706Z" fill="white" fill-opacity="0.9"/>
<path fill-rule="evenodd" clip-rule="evenodd" d="M229.178 102.173L225.955 101.529L229.209 100.878L229.858 97.6355L230.498 100.837L233.749 101.447L230.546 102.196L229.94 105.43L229.178 102.173Z" fill="white" fill-opacity="0.9"/>
<path fill-rule="evenodd" clip-rule="evenodd" d="M113.427 191.984L111.724 191.643L113.444 191.299L113.786 189.586L114.125 191.278L115.843 191.6L114.15 191.996L113.83 193.705L113.427 191.984Z" fill="white" fill-opacity="0.9"/>
</g>
<g filter="url(#filter_arrow)">
<line x1="36.7221" y1="182.53" x2="79.3062" y2="148.838" stroke="white" stroke-width="2"/>
<line x1="59.2901" y1="199.194" x2="236.662" y2="58.2904" stroke="white" stroke-width="2"/>
<line x1="79.1259" y1="148.615" x2="117.264" y2="153.061" stroke="white" stroke-width="2"/>
<line x1="36.5418" y1="182.307" x2="74.6799" y2="186.753" stroke="white" stroke-width="2"/>
<line y1="-1" x2="54.3007" y2="-1" transform="matrix(0.784228 -0.620472 -0.620472 -0.784228 69.8196 224.363)" stroke="white" stroke-width="2"/>
<line y1="-1" x2="38.3964" y2="-1" transform="matrix(0.115793 -0.993273 -0.993273 -0.115793 112.207 191.566)" stroke="white" stroke-width="2"/>
<line y1="-1" x2="44.1654" y2="-1" transform="matrix(0.999739 0.0228703 -0.207711 0.97819 193.95 58.165)" stroke="white" stroke-width="2"/>
<line y1="-1" x2="44.1654" y2="-1" transform="matrix(0.207711 -0.97819 -0.999739 -0.0228703 228.416 101.727)" stroke="white" stroke-width="2"/>
<line y1="-1" x2="38.3964" y2="-1" transform="matrix(0.115793 -0.993273 -0.993273 -0.115793 69.6226 225.258)" stroke="white" stroke-width="2"/>
</g>
</g>
<defs>
<filter id="filter_arrow" x="12.1016" y="32.2087" width="251.487" height="217.723" filterUnits="userSpaceOnUse" color-interpolation-filters="sRGB">
<feFlood flood-opacity="0" result="BackgroundImageFix"/>
<feColorMatrix in="SourceAlpha" type="matrix" values="0 0 0 0 0 0 0 0 0 0 0 0 0 0 0 0 0 0 127 0"/>
<feOffset/>
<feGaussianBlur stdDeviation="12"/>
<feColorMatrix type="matrix" values="0 0 0 0 1 0 0 0 0 1 0 0 0 0 1 0 0 0 0.25 0"/>
<feBlend mode="normal" in2="BackgroundImageFix" result="effect1_dropShadow"/>
<feColorMatrix in="SourceAlpha" type="matrix" values="0 0 0 0 0 0 0 0 0 0 0 0 0 0 0 0 0 0 127 0"/>
<feOffset/>
<feGaussianBlur stdDeviation="7.5"/>
<feColorMatrix type="matrix" values="0 0 0 0 1 0 0 0 0 1 0 0 0 0 1 0 0 0 0.68 0"/>
<feBlend mode="normal" in2="effect1_dropShadow" result="effect2_dropShadow"/>
<feBlend mode="normal" in="SourceGraphic" in2="effect2_dropShadow" result="shape"/>
</filter>
<clipPath id="clip0">
<rect width="286" height="107" fill="white" transform="translate(0.660095 178.271) rotate(-38.3506)"/>
</clipPath>
</defs>
</svg>
