<svg width="255" height="219" viewBox="0 0 255 219" fill="none" xmlns="http://www.w3.org/2000/svg">
<path fill="#fff" fill-opacity=".9" d="M229.464 29.545l2.23.489-2.268.41-.492 2.245-.404-2.232-2.251-.464 2.235-.48.461-2.24.489 2.272zM186.925 28.092l4.462.977-4.537.822-.983 4.49-.809-4.465-4.502-.929 4.469-.96.924-4.479.976 4.544zM28.305 150.544l3.212.703-3.266.591-.707 3.232-.583-3.214-3.24-.668 3.217-.691.665-3.224.702 3.271zM49.016 167.942l1.25.274-1.271.23-.275 1.258-.227-1.251-1.262-.261 1.253-.269.259-1.255.273 1.274zM60.301 192.543l3.212.703-3.266.591-.707 3.231-.582-3.213-3.24-.668 3.216-.691.665-3.223.702 3.27zM107.427 122.816l1.871.41-1.904.344-.411 1.885-.34-1.874-1.89-.389 1.877-.403.386-1.88.411 1.907zM69.718 117.724l2.319.508-2.359.427-.51 2.333-.42-2.32-2.34-.483 2.323-.499.48-2.327.507 2.361zM220.302 72.544l3.211.703-3.266.591-.707 3.23-.581-3.212-3.241-.668 3.217-.692.665-3.222.702 3.27zM102.308 160.851l1.697.372-1.725.312-.374 1.707-.308-1.698-1.712-.352 1.7-.366.351-1.703.371 1.728z"/>

<g stroke="#fff" stroke-width="2" filter="url(#filter0_dd)">
<!--<path d="M25.0723 150.69L68.2582 117.773"/>
<path d="M47.3359 167.758L227.224 30.083"/>
<path d="M68.082 117.547L106.134 122.682"/>
<path d="M24.8965 150.464L62.9481 155.599"/>
<path d="M58.0156 193.91L101.202 160.993"/>
<path d="M101.373 161.223L106.507 123.171"/>
<path d="M184.748 28.2119L228.876 30.0196"/>
<path d="M219.193 73.4053L229.146 30.3759"/>
<path d="M58.1875 194.14L63.3219 156.088"/>-->
<path d="M25.072 150.69l43.186-32.917M47.336 167.758L227.224 30.083M68.082 117.547l38.052 5.135M24.896 150.464l38.052 5.135M58.016 193.91l43.186-32.917M101.373 161.223l5.134-38.052M184.748 28.212l44.128 1.808M219.193 73.405l9.953-43.03M58.188 194.14l5.134-38.052"/>
</g>

<defs>
    <filter id="filter0_dd" width="253.68" height="215.467" x=".466" y="3.238" color-interpolation-filters="sRGB" filterUnits="userSpaceOnUse">
        <feFlood flood-opacity="0" result="BackgroundImageFix"/>
        <feColorMatrix in="SourceAlpha" values="0 0 0 0 0 0 0 0 0 0 0 0 0 0 0 0 0 0 127 0"/>
        <feOffset/>
        <feGaussianBlur stdDeviation="12"/>
        <feColorMatrix values="0 0 0 0 1 0 0 0 0 1 0 0 0 0 1 0 0 0 0.25 0"/>
        <feBlend in2="BackgroundImageFix" result="effect1_dropShadow"/>
        <feColorMatrix in="SourceAlpha" values="0 0 0 0 0 0 0 0 0 0 0 0 0 0 0 0 0 0 127 0"/>
        <feOffset/>
        <feGaussianBlur stdDeviation="7.5"/>
        <feColorMatrix values="0 0 0 0 1 0 0 0 0 1 0 0 0 0 1 0 0 0 0.68 0"/>
        <feBlend in2="effect1_dropShadow" result="effect2_dropShadow"/>
        <feBlend in="SourceGraphic" in2="effect2_dropShadow" result="shape"/>
    </filter>
</defs>
</svg>
