<svg width="164" height="172" viewBox="0 0 164 172" fill="none" xmlns="http://www.w3.org/2000/svg">
<g filter="url(#filter0_dd)">
<line x1="116.341" y1="27.1689" x2="77.9443" y2="75.1136" stroke="white" stroke-width="2"/>
<line x1="121.645" y1="27.5438" x2="115.561" y2="27.5438" stroke="white" stroke-width="2"/>
<line x1="127.591" y1="37.4688" x2="90.2431" y2="83.353" stroke="white" stroke-width="2"/>
<line x1="138.972" y1="90.2858" x2="107.051" y2="146.712" stroke="white" stroke-width="2"/>
<line x1="56.8977" y1="43.8557" x2="24.9771" y2="100.282" stroke="white" stroke-width="2"/>
<line x1="56.5298" y1="42.4987" x2="139.201" y2="90.5377" stroke="white" stroke-width="2"/>
<line x1="24.5993" y1="98.9189" x2="106.673" y2="145.349" stroke="white" stroke-width="2"/>
<line x1="126.973" y1="31.814" x2="121.043" y2="27.3424" stroke="white" stroke-width="2"/>
<line x1="70.0131" y1="97.7721" x2="90.585" y2="82.9148" stroke="white" stroke-width="2"/>
<line x1="127.267" y1="38.2611" x2="126.58" y2="31.1112" stroke="white" stroke-width="2"/>
<line x1="69.6577" y1="98.2439" x2="78.1094" y2="74.7812" stroke="white" stroke-width="2"/>
</g>
<path fill-rule="evenodd" clip-rule="evenodd" d="M3.94047 67.1677L1.70947 66.6795L3.97838 66.2684L4.46942 64.024L4.87397 66.2562L7.12493 66.7204L4.89034 67.2005L4.42871 69.4396L3.94047 67.1677Z" fill="white" fill-opacity="0.9"/>
<path fill-rule="evenodd" clip-rule="evenodd" d="M99.4858 56.047L96.3623 55.3635L99.5388 54.788L100.226 51.6459L100.793 54.7709L103.944 55.4207L100.816 56.0929L100.169 59.2276L99.4858 56.047Z" fill="white" fill-opacity="0.9"/>
<path fill-rule="evenodd" clip-rule="evenodd" d="M83.6338 112.015L81.4028 111.527L83.6717 111.116L84.1628 108.871L84.5673 111.103L86.8183 111.568L84.5837 112.048L84.1221 114.287L83.6338 112.015Z" fill="white" fill-opacity="0.9"/>
<path fill-rule="evenodd" clip-rule="evenodd" d="M138.893 140.001L134.431 139.024L138.969 138.202L139.951 133.713L140.76 138.178L145.262 139.106L140.793 140.066L139.869 144.545L138.893 140.001Z" fill="white" fill-opacity="0.9"/>
<path fill-rule="evenodd" clip-rule="evenodd" d="M114.622 85.1724L113.284 84.8795L114.645 84.6329L114.94 83.2863L115.182 84.6255L116.533 84.904L115.192 85.1921L114.915 86.5356L114.622 85.1724Z" fill="white" fill-opacity="0.9"/>
<path fill-rule="evenodd" clip-rule="evenodd" d="M60.7894 60.7248L59.6943 60.4851L60.808 60.2834L61.0491 59.1816L61.2476 60.2773L62.3526 60.5052L61.2557 60.7409L61.0291 61.84L60.7894 60.7248Z" fill="white" fill-opacity="0.9"/>
<path fill-rule="evenodd" clip-rule="evenodd" d="M54.6076 93.6761L53.5125 93.4364L54.6263 93.2347L54.8673 92.1329L55.0659 93.2286L56.1708 93.4565L55.0739 93.6922L54.8473 94.7913L54.6076 93.6761Z" fill="white" fill-opacity="0.9"/>
<path fill-rule="evenodd" clip-rule="evenodd" d="M43.5832 145.324L42.4881 145.084L43.6018 144.882L43.8429 143.78L44.0415 144.876L45.1464 145.104L44.0495 145.34L43.8229 146.439L43.5832 145.324Z" fill="white" fill-opacity="0.9"/>
<path fill-rule="evenodd" clip-rule="evenodd" d="M155.893 50.1486L153.703 49.6693L155.93 49.2657L156.412 47.0621L156.81 49.2537L159.019 49.7094L156.826 50.1808L156.372 52.3792L155.893 50.1486Z" fill="white" fill-opacity="0.9"/>
<path fill-rule="evenodd" clip-rule="evenodd" d="M73.2177 1.81645L72.1226 1.57679L73.2363 1.37503L73.4773 0.273315L73.6759 1.36902L74.7809 1.59686L73.684 1.83256L73.4574 2.93165L73.2177 1.81645Z" fill="white" fill-opacity="0.9"/>
<defs>
<filter id="filter0_dd" x="0.10675" y="2.54382" width="163.736" height="168.66" filterUnits="userSpaceOnUse" color-interpolation-filters="sRGB">
<feFlood flood-opacity="0" result="BackgroundImageFix"/>
<feColorMatrix in="SourceAlpha" type="matrix" values="0 0 0 0 0 0 0 0 0 0 0 0 0 0 0 0 0 0 127 0"/>
<feOffset/>
<feGaussianBlur stdDeviation="12"/>
<feColorMatrix type="matrix" values="0 0 0 0 1 0 0 0 0 1 0 0 0 0 1 0 0 0 0.25 0"/>
<feBlend mode="normal" in2="BackgroundImageFix" result="effect1_dropShadow"/>
<feColorMatrix in="SourceAlpha" type="matrix" values="0 0 0 0 0 0 0 0 0 0 0 0 0 0 0 0 0 0 127 0"/>
<feOffset/>
<feGaussianBlur stdDeviation="7.5"/>
<feColorMatrix type="matrix" values="0 0 0 0 1 0 0 0 0 1 0 0 0 0 1 0 0 0 0.68 0"/>
<feBlend mode="normal" in2="effect1_dropShadow" result="effect2_dropShadow"/>
<feBlend mode="normal" in="SourceGraphic" in2="effect2_dropShadow" result="shape"/>
</filter>
</defs>
</svg>
