<svg width="97" height="97" viewBox="0 0 97 97" fill="none" xmlns="http://www.w3.org/2000/svg">
<path fill-rule="evenodd" clip-rule="evenodd" d="M80.804 68.7309C78.0213 70.9348 74.9255 72.9035 71.5513 74.564C51.0056 84.6743 27.9163 79.5256 19.98 63.0641C19.9476 62.9969 19.9155 62.9296 19.8837 62.8622C19.5654 48.8496 28.6167 32.9171 44.3167 22.431C49.0464 19.272 53.9845 16.8712 58.9192 15.2181C54.2967 12.9311 49.0995 11.604 43.6031 11.5117C24.273 11.187 8.56139 26.257 8.5102 45.1714C8.47922 56.604 14.1768 66.8244 22.9578 73.1929L26.424 84.8405C32.8487 86.9627 40.3305 87.9067 48.2146 87.3103C63.8428 86.1281 75.8173 82.6547 81.706 73.5494L80.804 68.7309Z" fill="white"/>
<ellipse rx="2.93118" ry="6.09721" transform="matrix(0.879424 -0.47604 0.467366 0.884064 20.3903 62.2246)" fill="#C4C4C4"/>
<path d="M84.3288 65.6564C86.9936 59.2847 87.9904 52.1445 86.8676 44.8353C84.6836 30.6176 75.0245 19.3097 62.3944 14.1767C56.3166 15.7848 50.1578 18.5297 44.3168 22.431C28.6168 32.9171 19.5655 48.8496 19.8838 62.8622C19.9156 62.9296 19.9477 62.9969 19.9801 63.0641C27.9164 79.5256 51.0057 84.6743 71.5514 74.564C76.4267 72.1649 80.7207 69.1222 84.3288 65.6564Z" fill="#111F3B" stroke="white" stroke-width="2"/>
<path d="M61.5332 19.4937C69.2951 23.2709 75.5655 29.6814 79.0272 37.629M81.8388 48.7457C81.6879 46.986 81.4099 45.2661 81.0144 43.5942" stroke="white" stroke-width="2" stroke-linecap="round" stroke-linejoin="round"/>
<path d="M54.4975 43.4684C54.6445 42.4133 55.3182 40.8884 57.0354 40.6952C58.1086 40.5745 59.0584 41.2887 59.1872 42.4335C59.3778 44.1268 58.0264 44.3513 56.6762 45.4452C55.6808 46.2576 55.7297 47.1215 55.8478 48.1709L56.1403 50.7705L60.0755 50.3277L59.9252 48.9921C59.8367 48.2051 59.7854 47.5346 60.556 47.0856C62.7355 45.8502 64.3155 44.2233 64.0525 41.8861C63.6742 38.5233 60.2153 36.5456 56.6379 36.9482C51.3195 37.5466 50.7877 42.0503 50.8011 42.1695L54.4975 43.4684ZM58.2463 51.886C56.7438 52.0551 55.6643 53.4082 55.836 54.9346C56.0051 56.4371 57.3583 57.5166 58.8608 57.3475C60.3872 57.1758 61.4666 55.8226 61.2976 54.3201C61.1258 52.7937 59.7726 51.7142 58.2463 51.886Z" fill="white"/>
<ellipse rx="2.93118" ry="6.09721" transform="matrix(0.879424 -0.47604 0.467366 0.884064 20.5172 62.425)" fill="#101F39"/>
<path d="M19.7012 50.0014C19.7012 50.0014 23.832 38.5996 30.1113 31.8246C32.324 29.4372 34.0648 27.5464 35.7748 25.9236M47.6272 18.2747C44.5802 19.666 42.2933 20.9092 40.3419 22.2244" stroke="#111F3B" stroke-width="2" stroke-linecap="round" stroke-linejoin="round"/>
<path fill-rule="evenodd" clip-rule="evenodd" d="M21.0221 50.2064C23.9842 52.3717 28.5171 56.2206 30.3361 62.3335C32.1552 68.4464 31.1915 71.7982 30.4823 72.71C26.4037 71.4863 17.9019 67.88 16.5226 63.245C15.1433 58.61 14.5736 56.6955 21.0221 50.2064ZM23.2842 67.5383C24.7078 66.7676 24.5861 63.7296 23.0123 60.7526C21.4385 57.7756 19.0086 55.987 17.5849 56.7576C16.1613 57.5283 16.283 60.5663 17.8568 63.5433C19.4306 66.5203 21.8605 68.3089 23.2842 67.5383Z" fill="white"/>
</svg>
