<svg width="194" height="182" viewBox="0 0 194 182" fill="none" xmlns="http://www.w3.org/2000/svg">
<path fill-rule="evenodd" clip-rule="evenodd" d="M154.231 56.1437L152 55.6554L154.269 55.2444L154.76 53L155.165 55.2322L157.416 55.6963L155.181 56.1765L154.719 58.4155L154.231 56.1437Z" fill="white" fill-opacity="0.9"/>
<path fill-rule="evenodd" clip-rule="evenodd" d="M25.0635 70.322L23.4156 69.9613L25.0915 69.6578L25.4542 68L25.753 69.6487L27.4156 69.9915L25.7651 70.3462L25.4241 72L25.0635 70.322Z" fill="white" fill-opacity="0.9"/>
<path fill-rule="evenodd" clip-rule="evenodd" d="M56.2311 26.1437L54.0001 25.6554L56.269 25.2444L56.7601 23L57.1646 25.2322L59.4156 25.6963L57.181 26.1765L56.7194 28.4155L56.2311 26.1437Z" fill="white" fill-opacity="0.9"/>
<path fill-rule="evenodd" clip-rule="evenodd" d="M24.2311 121.144L22.0001 120.655L24.269 120.244L24.7601 118L25.1646 120.232L27.4156 120.696L25.181 121.176L24.7194 123.416L24.2311 121.144Z" fill="white" fill-opacity="0.9"/>
<path fill-rule="evenodd" clip-rule="evenodd" d="M117.339 24.8862L116 24.5932L117.361 24.3466L117.656 23L117.899 24.3393L119.249 24.6178L117.909 24.9059L117.632 26.2493L117.339 24.8862Z" fill="white" fill-opacity="0.9"/>
<path fill-rule="evenodd" clip-rule="evenodd" d="M133.095 156.543L132 156.303L133.114 156.102L133.355 155L133.553 156.096L134.658 156.324L133.561 156.559L133.335 157.658L133.095 156.543Z" fill="white" fill-opacity="0.9"/>
<path fill-rule="evenodd" clip-rule="evenodd" d="M168.095 133.543L167 133.303L168.114 133.102L168.355 132L168.553 133.096L169.658 133.324L168.561 133.559L168.335 134.658L168.095 133.543Z" fill="white" fill-opacity="0.9"/>
<path fill-rule="evenodd" clip-rule="evenodd" d="M118.095 120.543L117 120.303L118.114 120.102L118.355 119L118.553 120.096L119.658 120.324L118.561 120.559L118.335 121.658L118.095 120.543Z" fill="white" fill-opacity="0.9"/>
<path fill-rule="evenodd" clip-rule="evenodd" d="M166.095 113.543L165 113.303L166.114 113.102L166.355 112L166.553 113.096L167.658 113.324L166.561 113.559L166.335 114.658L166.095 113.543Z" fill="white" fill-opacity="0.9"/>
<path fill-rule="evenodd" clip-rule="evenodd" d="M75.0952 98.5431L74.0001 98.3035L75.1138 98.1017L75.3548 97L75.5534 98.0957L76.6584 98.3235L75.5615 98.5592L75.3349 99.6583L75.0952 98.5431Z" fill="white" fill-opacity="0.9"/>
<path fill-rule="evenodd" clip-rule="evenodd" d="M67.824 56.161L67 55.9807L67.838 55.8289L68.0193 55L68.1687 55.8244L69 55.9958L68.1748 56.1731L68.0043 57L67.824 56.161Z" fill="white" fill-opacity="0.9"/>
<path fill-rule="evenodd" clip-rule="evenodd" d="M117.824 48.161L117 47.9807L117.838 47.8289L118.019 47L118.169 47.8244L119 47.9958L118.175 48.1731L118.004 49L117.824 48.161Z" fill="white" fill-opacity="0.9"/>
<g filter="url(#filter0_dd)">
<path d="M154.964 55.8235L118.051 25H57.2987L25 70.4647V120.553L132.662 156L168 133.257L165.73 113.618M154.964 55.8235L165.73 113.618M154.964 55.8235L118.051 48.1176L68.065 55.8235L75.7551 98.2059L118.051 120.553L165.73 113.618" stroke="white" stroke-width="2"/>
</g>
<defs>
<filter id="filter0_dd" x="0" y="0" width="193.065" height="181.099" filterUnits="userSpaceOnUse" color-interpolation-filters="sRGB">
<feFlood flood-opacity="0" result="BackgroundImageFix"/>
<feColorMatrix in="SourceAlpha" type="matrix" values="0 0 0 0 0 0 0 0 0 0 0 0 0 0 0 0 0 0 127 0"/>
<feOffset/>
<feGaussianBlur stdDeviation="12"/>
<feColorMatrix type="matrix" values="0 0 0 0 1 0 0 0 0 1 0 0 0 0 1 0 0 0 0.25 0"/>
<feBlend mode="normal" in2="BackgroundImageFix" result="effect1_dropShadow"/>
<feColorMatrix in="SourceAlpha" type="matrix" values="0 0 0 0 0 0 0 0 0 0 0 0 0 0 0 0 0 0 127 0"/>
<feOffset/>
<feGaussianBlur stdDeviation="7.5"/>
<feColorMatrix type="matrix" values="0 0 0 0 1 0 0 0 0 1 0 0 0 0 1 0 0 0 0.68 0"/>
<feBlend mode="normal" in2="effect1_dropShadow" result="effect2_dropShadow"/>
<feBlend mode="normal" in="SourceGraphic" in2="effect2_dropShadow" result="shape"/>
</filter>
</defs>
</svg>
