<svg width="192" height="160" viewBox="0 0 192 160" fill="none" xmlns="http://www.w3.org/2000/svg">
<path fill-rule="evenodd" clip-rule="evenodd" d="M166.523 49.4359L164.292 48.9477L166.561 48.5367L167.052 46.2923L167.457 48.5244L169.708 48.9886L167.473 49.4687L167.012 51.7078L166.523 49.4359Z" fill="white" fill-opacity="0.9"/>
<path fill-rule="evenodd" clip-rule="evenodd" d="M41.0464 26.8726L36.5845 25.8961L41.1223 25.074L42.1046 20.5849L42.9135 25.0495L47.4153 25.9779L42.9461 26.9383L42.0227 31.4167L41.0464 26.8726Z" fill="white" fill-opacity="0.9"/>
<path fill-rule="evenodd" clip-rule="evenodd" d="M150.675 136.395L143.535 134.833L150.796 133.517L152.367 126.335L153.662 133.478L160.865 134.963L153.714 136.5L152.237 143.665L150.675 136.395Z" fill="white" fill-opacity="0.9"/>
<path fill-rule="evenodd" clip-rule="evenodd" d="M95.4654 80.9844L93.2751 80.505L95.5027 80.1015L95.9848 77.8979L96.3819 80.0894L98.5917 80.5452L96.3979 81.0166L95.9446 83.2149L95.4654 80.9844Z" fill="white" fill-opacity="0.9"/>
<path fill-rule="evenodd" clip-rule="evenodd" d="M24.9709 112.892L22.963 112.453L25.005 112.083L25.4469 110.063L25.811 112.072L27.8369 112.49L25.8258 112.922L25.4103 114.937L24.9709 112.892Z" fill="white" fill-opacity="0.9"/>
<g filter="url(#filter_mail)">
<line x1="166.508" y1="49.3856" x2="150.556" y2="135.716" stroke="white" stroke-width="2"/>
<line x1="40.936" y1="26.1817" x2="24.9834" y2="112.513" stroke="white" stroke-width="2"/>
<line x1="40.1457" y1="25.0188" x2="167.193" y2="50.0188" stroke="white" stroke-width="2"/>
<line x1="40.6658" y1="25.299" x2="95.7131" y2="81.299" stroke="white" stroke-width="2"/>
<line x1="165.932" y1="50.1174" x2="95.1801" y2="81.6224" stroke="white" stroke-width="2"/>
<line x1="24.1818" y1="111.348" x2="149.754" y2="134.551" stroke="white" stroke-width="2"/>
</g>
<defs>
<filter id="filter_mail" x="0" y="0.0376282" width="191.492" height="159.861" filterUnits="userSpaceOnUse" color-interpolation-filters="sRGB">
<feFlood flood-opacity="0" result="BackgroundImageFix"/>
<feColorMatrix in="SourceAlpha" type="matrix" values="0 0 0 0 0 0 0 0 0 0 0 0 0 0 0 0 0 0 127 0"/>
<feOffset/>
<feGaussianBlur stdDeviation="12"/>
<feColorMatrix type="matrix" values="0 0 0 0 1 0 0 0 0 1 0 0 0 0 1 0 0 0 0.25 0"/>
<feBlend mode="normal" in2="BackgroundImageFix" result="effect1_dropShadow"/>
<feColorMatrix in="SourceAlpha" type="matrix" values="0 0 0 0 0 0 0 0 0 0 0 0 0 0 0 0 0 0 127 0"/>
<feOffset/>
<feGaussianBlur stdDeviation="7.5"/>
<feColorMatrix type="matrix" values="0 0 0 0 1 0 0 0 0 1 0 0 0 0 1 0 0 0 0.68 0"/>
<feBlend mode="normal" in2="effect1_dropShadow" result="effect2_dropShadow"/>
<feBlend mode="normal" in="SourceGraphic" in2="effect2_dropShadow" result="shape"/>
</filter>
</defs>
</svg>
