<svg width="204" height="195" viewBox="0 0 204 195" fill="none" xmlns="http://www.w3.org/2000/svg">
<g filter="url(#filter0_dd)">
<line x1="95.7822" y1="25.0777" x2="122.165" y2="80.548" stroke="white" stroke-width="2"/>
<line x1="136.347" y1="109.181" x2="162.73" y2="164.652" stroke="white" stroke-width="2"/>
<line x1="95.8572" y1="25.7154" x2="83.3608" y2="84.4127" stroke="white" stroke-width="2"/>
<line x1="76.6592" y1="117.337" x2="65.3934" y2="168.859" stroke="white" stroke-width="2"/>
<line x1="82.491" y1="85.1986" x2="25.8259" y2="91.3679" stroke="white" stroke-width="2"/>
<line x1="177.927" y1="74.8083" x2="121.262" y2="80.9776" stroke="white" stroke-width="2"/>
<line x1="159.626" y1="163.878" x2="105.553" y2="135.833" stroke="white" stroke-width="2"/>
<line x1="75.435" y1="117.982" x2="25.2477" y2="91.2565" stroke="white" stroke-width="2"/>
<line x1="178.464" y1="74.5781" x2="136.09" y2="110.375" stroke="white" stroke-width="2"/>
<line x1="105.657" y1="135.824" x2="65.054" y2="169.416" stroke="white" stroke-width="2"/>
</g>
<path fill-rule="evenodd" clip-rule="evenodd" d="M25.7605 91.4056L23.5295 90.9174L25.7984 90.5064L26.2895 88.262L26.694 90.4941L28.945 90.9583L26.7104 91.4384L26.2488 93.6775L25.7605 91.4056Z" fill="white" fill-opacity="0.9"/>
<path fill-rule="evenodd" clip-rule="evenodd" d="M121.306 80.285L118.182 79.6014L121.359 79.026L122.046 75.8838L122.613 79.0089L125.764 79.6587L122.636 80.3309L121.989 83.4656L121.306 80.285Z" fill="white" fill-opacity="0.9"/>
<path fill-rule="evenodd" clip-rule="evenodd" d="M105.454 136.253L103.223 135.765L105.492 135.354L105.983 133.109L106.387 135.341L108.638 135.806L106.404 136.286L105.942 138.525L105.454 136.253Z" fill="white" fill-opacity="0.9"/>
<path fill-rule="evenodd" clip-rule="evenodd" d="M160.713 164.239L156.251 163.262L160.789 162.44L161.771 157.951L162.58 162.415L167.082 163.344L162.613 164.304L161.689 168.783L160.713 164.239Z" fill="white" fill-opacity="0.9"/>
<path fill-rule="evenodd" clip-rule="evenodd" d="M136.442 109.41L135.104 109.117L136.465 108.871L136.76 107.524L137.002 108.863L138.353 109.142L137.012 109.43L136.735 110.774L136.442 109.41Z" fill="white" fill-opacity="0.9"/>
<path fill-rule="evenodd" clip-rule="evenodd" d="M82.6095 84.9628L81.5143 84.7231L82.6281 84.5213L82.8691 83.4196L83.0677 84.5153L84.1726 84.7432L83.0757 84.9789L82.8491 86.078L82.6095 84.9628Z" fill="white" fill-opacity="0.9"/>
<path fill-rule="evenodd" clip-rule="evenodd" d="M76.4277 117.914L75.3326 117.674L76.4463 117.473L76.6874 116.371L76.8859 117.467L77.9909 117.694L76.894 117.93L76.6674 119.029L76.4277 117.914Z" fill="white" fill-opacity="0.9"/>
<path fill-rule="evenodd" clip-rule="evenodd" d="M65.4033 169.561L64.3082 169.322L65.4219 169.12L65.6629 168.018L65.8615 169.114L66.9665 169.342L65.8696 169.578L65.643 170.677L65.4033 169.561Z" fill="white" fill-opacity="0.9"/>
<path fill-rule="evenodd" clip-rule="evenodd" d="M177.713 74.3865L175.523 73.9072L177.75 73.5036L178.232 71.3L178.63 73.4916L180.839 73.9473L178.646 74.4188L178.192 76.6171L177.713 74.3865Z" fill="white" fill-opacity="0.9"/>
<path fill-rule="evenodd" clip-rule="evenodd" d="M95.0378 26.0544L93.9427 25.8147L95.0564 25.613L95.2975 24.5113L95.4961 25.607L96.601 25.8348L95.5041 26.0705L95.2775 27.1696L95.0378 26.0544Z" fill="white" fill-opacity="0.9"/>
<defs>
<filter id="filter0_dd" x="0.777588" y="0.648148" width="202.332" height="193.538" filterUnits="userSpaceOnUse" color-interpolation-filters="sRGB">
<feFlood flood-opacity="0" result="BackgroundImageFix"/>
<feColorMatrix in="SourceAlpha" type="matrix" values="0 0 0 0 0 0 0 0 0 0 0 0 0 0 0 0 0 0 127 0"/>
<feOffset/>
<feGaussianBlur stdDeviation="12"/>
<feColorMatrix type="matrix" values="0 0 0 0 1 0 0 0 0 1 0 0 0 0 1 0 0 0 0.25 0"/>
<feBlend mode="normal" in2="BackgroundImageFix" result="effect1_dropShadow"/>
<feColorMatrix in="SourceAlpha" type="matrix" values="0 0 0 0 0 0 0 0 0 0 0 0 0 0 0 0 0 0 127 0"/>
<feOffset/>
<feGaussianBlur stdDeviation="7.5"/>
<feColorMatrix type="matrix" values="0 0 0 0 1 0 0 0 0 1 0 0 0 0 1 0 0 0 0.68 0"/>
<feBlend mode="normal" in2="effect1_dropShadow" result="effect2_dropShadow"/>
<feBlend mode="normal" in="SourceGraphic" in2="effect2_dropShadow" result="shape"/>
</filter>
</defs>
</svg>
