<svg version="1" xmlns="http://www.w3.org/2000/svg" width="413.333" height="413.333" viewBox="0 0 310.000000 310.000000"><path d="M216.5 3.4c-3.6 3.6-4.1 6.9-1.6 11.2l2.1 3.5-3.6 14.7c-2 8.1-3.7 14.8-3.9 15-.1.2-3.3-.4-7.1-1.2-21.3-4.7-47.7-4.7-55.1 0-1.1.7-4.7 6.4-7.8 12.6-3.2 6.2-8.1 15.8-11 21.3-4.7 8.9-9.8 18.8-28.6 55.3l-5.3 10.4-39.8 39c-42.6 41.8-42 41-38 46.9 7.6 11.3 37.4 26.7 82.2 42.5 10.2 3.6 12.7 4.2 13.5 3 .6-.7 3.9-6.6 7.4-13 3.6-6.4 7.1-11.6 7.8-11.6 2.4 0 50.6 13.9 51.6 14.9.5.5 1.5 7.1 2.3 14.7.8 7.8 2 14.4 2.7 15 .7.6 4.4 1.7 8.2 2.3 48.6 8.7 73.5 11.3 87.2 9.1 16.7-2.6 17.5-3.9 12.7-18.7-1.9-5.9-10-30.6-17.9-54.8l-14.4-44 1.3-54.5c1.2-51.6 1.2-54.7-.5-58-4.3-8.6-21-20.4-37.1-26.1-6.2-2.2-8.8-3.7-8.8-4.8.1-.9 1.6-7.7 3.4-15.1 2.8-11.5 3.7-13.7 5.7-14.7 6.3-3.2 7.9-10.5 3.3-14.8-3.5-3.2-7.8-3.2-10.9-.1zm-16 102c26.5 13 21.6 51.4-7.4 58.2-12.8 3.1-26.9-3.5-33.6-15.7-3.7-6.8-4.6-17.2-2.1-24.7 3-8.9 12.7-17.8 22.1-20.3 5.5-1.5 15.1-.3 21 2.5zm-70 93.6c13 2.6 65.6 16.8 82 22.2 4.7 1.6 5.2 2.8 5.5 16.8.1 5.2.5 12.2.9 15.5l.6 5.9 10.3 4.3c13.9 5.7 31.4 14.6 37.4 18.9 2.7 2 5.6 5 6.4 6.6 1.5 2.9 1.5 3.2-.5 5.2-3 2.9-17.3 3.4-33 1.1-15.3-2.3-44.2-8.2-45.3-9.3-.4-.4-1.1-6.3-1.5-13-.3-6.9-1.1-12.6-1.7-13.1-.6-.4-6.9-2.5-14.1-4.5-7.1-2-21.8-6.1-32.5-9.1-27.3-7.8-25-8.1-31.9 3.7-3.1 5.3-6.1 10.2-6.7 10.8-1.9 1.9-42.4-13.3-56.1-21.2-7.5-4.3-13.7-10-13-12.1.2-.6 1.5-1.9 2.9-3 4.9-3.7 29-3.3 52.8.9 6.7 1.1 8.6 1.2 9.5.2.7-.7 5.1-7.5 10-15.1 6.4-9.9 9.2-13.6 10.4-13.3.9.3 4.3 1 7.6 1.6z"/></svg>