<svg version="1" xmlns="http://www.w3.org/2000/svg" width="3117.333" height="3117.333" viewBox="0 0 2338.000000 2338.000000"><path d="M1203.7 97.6c-22.2 5.2-37.9 24.7-38.6 47.9-.4 15.3 4.7 28.2 15.6 39 5 5.1 6.4 7.1 6 8.8-.3 1.2-3.2 13-6.5 26.2s-12.6 50.3-20.7 82.5c-8 32.2-15 60.1-15.5 62l-1 3.6-15-3.8c-8.3-2.1-16.1-4-17.3-4.2-1.2-.3-7.6-1.6-14.2-3s-13.6-2.8-15.5-3.1c-1.9-.3-4.2-.8-5-1-1.8-.5-4.5-1-16.5-3-4.9-.8-10.3-1.7-12-2-7.4-1.2-9.3-1.5-14-2-2.7-.3-6-.7-7.1-.9-1.2-.2-6.6-.9-12-1.5-9.3-1.1-13.3-1.5-24.4-2.6-40.7-4-103.9-4-139 0-3.6.4-7.6.9-9 1-1.4.1-3.8.5-5.5.8-1.6.4-4.8.9-7 1.2-6.6.9-9.7 1.5-16.5 3.1-3.6.9-7.4 1.7-8.6 2-1.2.2-5.6 1.5-9.9 2.9-19.4 6.4-30.2 13.8-32.5 22.5-.7 2.5-2.4 6.7-4 9.5-2.7 4.9-7.6 14.3-20 38-3.5 6.6-8.1 15.4-10.3 19.5-2.2 4.1-6.2 11.8-8.9 17-4.9 9.2-9.8 18.6-19.8 37.5-2.6 4.9-7 13.3-9.7 18.5-2.8 5.2-7.2 13.5-9.8 18.5-2.6 4.9-7.5 14.2-10.8 20.5-3.3 6.3-7.6 14.6-9.7 18.5-2.1 3.8-6.1 11.5-9 17-2.9 5.5-6.9 13.1-9 17-2.1 3.8-6.6 12.4-10 19-3.5 6.6-8.3 15.8-10.8 20.5-2.4 4.7-6.6 12.5-9.2 17.5-2.6 4.9-6.8 12.8-9.2 17.5-2.5 4.7-7.1 13.4-10.3 19.5-3.2 6-7.7 14.6-10 19s-6.8 12.9-10 19c-3.2 6-7.5 14.1-9.5 18-2.1 3.8-6.6 12.4-10 19-3.4 6.6-7.9 15.1-10 19-5.4 10.2-12.9 24.4-19.5 37-8.1 15.5-15.2 28.8-19.5 37-6.8 12.7-17.4 32.9-20.8 39.5-14.1 27.8-8.9 21.5-50.3 61-8.9 8.5-18.6 17.7-21.4 20.5-2.9 2.7-13 12.4-22.5 21.5-20 19.2-20.4 19.5-46.4 44.5-10.9 10.4-22.2 21.2-25 23.8-2.8 2.7-13.1 12.6-23 22-9.8 9.5-20.4 19.7-23.6 22.7-12.6 12-36.6 34.9-43.5 41.5-4 3.8-15.5 14.9-25.6 24.5-10 9.6-23 22.1-28.8 27.7-5.8 5.6-13.1 12.5-16.2 15.5-3.1 2.9-13.6 13-23.5 22.5-9.8 9.4-20.8 19.9-24.4 23.3-3.6 3.4-14.1 13.5-23.5 22.5-9.3 9-19.8 18.9-23.1 22.1-17.2 16.4-41.8 40-51.3 49.1-10.5 10-10.6 10.1-7.8 10.8 2.1.6 2.6 1.2 2.1 2.4-.3.9-.9 4.5-1.1 8.1-1.7 23.1 22.8 51.9 74.2 87.2 17.2 11.8 44.8 28.4 66 39.8 4.4 2.4 10.3 5.5 13 7.1 6.5 3.5 45 22.7 54.6 27.2 18 8.4 23 10.7 32.9 15.2 5.8 2.6 13.3 6 16.8 7.6 3.5 1.6 6.5 2.9 6.7 2.9.3 0 2.8 1.1 5.7 2.4 8.6 4 48.7 20.7 69.8 29 10.7 4.3 20.4 8.1 21.5 8.6 1.1.5 10.6 4.1 21 8 10.5 3.9 19.9 7.5 21 8 3.2 1.4 35.8 13.2 65.5 23.7 8.5 3 34.4 11.8 57.4 19.5 34.3 11.4 42.1 13.7 43.1 12.6.9-1 30.7-52.8 44.8-77.8 1.1-1.9 4.3-7.6 7.2-12.5 2.9-5 6.4-11 7.7-13.5 1.4-2.5 4.4-7.7 6.7-11.7 2.2-3.9 4.9-8.7 5.9-10.5 7.3-12.7 13.5-23.4 14.2-24.2.8-.8 11.2 1.9 46 11.6 5.8 1.6 11.2 3.1 12 3.3.8.2 12.3 3.4 25.5 7 13.2 3.7 29 8 35 9.7 6.1 1.6 13.9 3.8 17.5 4.8 15.5 4.3 22.2 6.2 32.4 8.9 6 1.6 11.2 3.3 11.6 3.8.4.4 1.5 6 2.5 12.3.9 6.3 1.9 12.6 2.1 14 1.5 10.2 6.2 32.9 9.9 48 1.4 5.8 2.8 11.6 3.1 12.9 2.8 13 15.8 53.8 24.7 77.6 28 74.8 74.1 153.9 124 213 3.3 3.8 6.9 8.1 8 9.5 18.4 22.4 55.4 59.4 83.2 83.1 37.3 31.8 66.6 52.4 116.5 81.9 36.4 21.6 90.9 45.7 138.5 61.3 24.5 8.1 68.9 19.6 88.5 23.1 1.9.3 4.6.8 6 1.1 4.7.9 25.5 4.4 30 5 2.5.3 5.6.8 7 1 2.6.4 11.5 1.6 16 2 1.4.1 5.9.5 10 .9s9.1.9 11 1.1c3.7.4 18 1.4 29.5 2.1 8.6.5 60.1.4 70.5 0 10.2-.5 24.3-1.5 31-2.1 31.2-3.1 43.5-4.7 67-8.9 4.7-.9 9.9-1.8 11.5-2.1 1.7-.3 4.1-.8 5.5-1.1 1.4-.3 3.6-.8 5-1.1 9.2-1.6 42.9-9.9 50.5-12.3 1.7-.5 9.1-2.8 16.5-5.1 13.5-4.1 33.3-10.7 38-12.7 1.4-.6 6.3-2.5 11-4.2 4.7-1.7 9.4-3.5 10.5-4 1.1-.5 7-3 13-5.5 34-14.5 70.8-33.5 101-52.3 17.1-10.6 55.8-37.3 58.5-40.2.3-.4 2.3-1.9 4.5-3.6 21.2-15.6 50-40.9 73.7-64.7 13.8-13.8 35.5-37.3 42.8-46.3l8.1-9.9c3.7-4.4 11.8-15 18.2-23.5 6.4-8.5 12-16 12.5-16.6 4.9-5.8 42.2-64.8 42.2-66.7 0-.3 1.9-3.8 4.3-7.9 7.9-13.4 21-40.5 32.7-67.3 1.8-4.1 11.7-29.1 15-38 6.2-16.7 21.3-66.6 22.6-75 .3-1.7.9-4.4 1.4-6 1-3 7.4-33.8 8.5-40.5 1-6.2 1.5-8.9 2-12.3 2.1-12.2 3.8-25 5-35.7.3-3.6.8-7.6 1-9 .2-1.4.6-6.3 1-11 .3-4.7.8-10.6 1.1-13.2 1.5-16.2 2.1-71.4 1-89.8-.8-14.1-1.8-28.6-2.1-30-.2-.8-.6-5.3-1-10s-.9-9.2-1-10.1c-.2-.9-.6-4-1-7-.3-3-.8-6.5-1-7.9-.3-1.4-.8-5.2-1.1-8.4-.3-3.3-.7-6.3-.9-6.6-.2-.4-.7-2.9-1-5.6-.9-6.1-7.4-39.4-7.9-40.3-.2-.3-.7-2.4-1-4.6-.4-2.2-2-9.2-3.7-15.5-1.6-6.3-3.1-12.2-3.3-13-.2-.8-1-3.5-1.7-6s-1.3-5-1.5-5.6c-.3-1.6-7.3-24.2-9.6-30.9-3.1-9.4-7.9-22.8-8.8-25-.4-1.1-2.7-7-5.1-13-2.3-6.1-5.2-13.3-6.4-16-1.3-2.8-4.6-10.4-7.5-17-17.7-40-48.1-92.9-73.2-127.1-2.7-3.6-4.8-6.7-4.8-6.9 0-.3-.7-1.3-1.5-2.2-.8-1-6-7.7-11.5-14.8-9.7-12.5-23.2-29-29.5-35.9-16.9-18.6-22.9-25-34.6-36.6-7.4-7.4-17.7-17.3-22.9-22-5.1-4.7-9.8-9-10.4-9.5-.6-.6-5.4-4.7-10.6-9-5.2-4.4-10.4-8.8-11.5-9.7-1.6-1.3-15-11.9-21-16.6-13.2-10.2-50.2-35.4-62.6-42.7-1-.6-5.5-3.2-10.1-5.9-40.5-24.1-89-46.6-132.3-61.6-6.6-2.2-13.1-4.5-14.5-5-2.7-1-24.6-7.7-29.5-9-4.3-1.2-18.7-5-20.5-5.4-.8-.2-4.2-1.1-7.5-1.9-3.3-.9-7.1-1.8-8.5-2-1.4-.3-4.3-1-6.5-1.5-2.2-.6-5.3-1.3-7-1.6-1.6-.3-7.5-1.4-13-2.5s-11.8-2.2-14-2.5c-2.3-.4-5.2-.9-6.5-1.1-1.4-.3-4.1-.7-6-1-3.4-.5-5.9-.8-13-1.9-1.9-.3-7.8-1-13-1.6-5.2-.6-11.5-1.3-13.9-1.6-2.4-.3-6.5-.7-9-.9-9.8-.7-24.8-1.8-29.6-2.1-6.9-.4-69.1-.4-74 0-2.2.2-9.4.6-16 1s-13.1.9-14.5 1.1c-1.4.2-5.6.6-9.5 1-3.8.3-8.1.8-9.5 1-2.4.3-7.1.9-16.7 2.1-2.7.3-7.3.9-10.3 1.4-7.4 1.3-10.7 1.8-16 2.5-2.4.4-4.8.9-5.2 1.1-.4.3-.6-7.5-.3-17.3.2-9.8.7-29.7 1-44.3.6-30.3 1.1-52.3 2-93.5.7-30.2.8-34.2.6-36.2-.1-.7-1.4-1.9-2.9-2.7-2.2-1.1-3.2-2.8-4.5-7.3-7.3-26-57.8-71.8-114.7-104.1-1.9-1.1-6.9-3.9-11-6.2-8.2-4.7-36.3-18.9-47.5-24-28.1-12.8-69.7-28.2-95.7-35.4-3.6-1.1-5.6-2.1-5.3-2.9.4-1 21.7-86.1 23-91.7.8-3.4 20.8-83.5 20.9-83.6.1-.1 1.9-.5 4.1-.8 9.3-1.4 13.7-3.1 21.5-8.1 24.8-15.9 30.4-50.8 11.9-74.9-6.2-8-17.9-15.7-27.4-18.1-5.4-1.3-16.9-1.3-22.8.1zm-169 581.7c.5.3 3.2.9 5.9 1.2 19.3 2.5 46.4 12.6 66.2 24.6 15.3 9.4 34.9 26.6 45.7 40.4 2.2 2.7 4.2 5.2 4.5 5.5.3.3 3.3 4.8 6.7 10 13.8 21.7 23.9 49.1 26.8 73 1.5 11.9 1.4 13-.8 14.5-1.2.8-10.7 7.2-21.2 14.1-33.9 22.4-67.8 49.2-96.3 75.9-17.3 16.2-44.2 44-55.7 57.6-7.7 9.1-18.5 22.1-21 25.3-9.7 12.5-8.3 11.8-19 9.5-2.7-.6-6.1-1.3-7.5-1.5-4.3-.9-21.3-6.6-27-9.1-9.8-4.3-28-14.2-30-16.3-.3-.3-2.4-1.8-4.8-3.4-10.6-7.2-23.8-19.7-34.9-33.1-13.2-15.8-26.2-40.7-32.3-62-2.7-9.2-3.7-14.2-5.9-29.5-1-6.6-.7-38.1.3-43.5.4-1.7 1.3-6.6 2.2-11 7.3-37.8 28.7-74.2 59-100.5 9.7-8.4 28.9-20.6 41-26.1 17-7.7 39.3-14 54.9-15.5 3.9-.4 7.2-.8 7.4-1 .6-.6 34.8.3 35.8.9zM631 1224c1.9.6 5.5 1.3 8 1.5 2.5.3 5.6.8 7 1 1.4.3 3.9.7 5.7 1 6.6 1.1 30.5 6.1 57.3 12 .8.2 6.5 1.6 12.5 3 10.4 2.5 12.2 2.9 17 3.9 1.8.4 25.5 6.1 42.4 10.2 3.6.9 7.4 1.8 8.5 2.1 2.3.5 2.5.5 8.1 2.1 2.2.6 5.5 1.4 7.4 1.7 1.9.3 3.7.8 4.1 1 .3.2 1.7.6 3.1.9 1.3.2 10.5 2.5 20.4 5.1 9.9 2.6 20.8 5.4 24.3 6.2 3.9.9 6.2 1.9 5.9 2.6-.8 2.2-5.6 19.2-6.1 21.7-.3 1.4-1.8 7.9-3.5 14.5-1.6 6.6-3.2 13.3-3.5 15-.4 1.6-.8 4.2-1.1 5.8-.3 1.5-1.2 5.8-1.9 9.5-1.9 9-5.2 28.9-7.1 43.7-.9 6.6-1.8 13.3-2 15-.2 1.6-.7 6.1-1 10-.3 3.8-.8 8.6-1 10.5-.5 4.2-1.5 19.8-2.1 30.7-.5 11.1-.5 64.3 0 67.1.4 1.8.1 2.2-1.2 1.8-.9-.2-4.8-1.4-8.7-2.5-8.2-2.4-21.4-6.1-23.5-6.5-.8-.2-13.2-3.6-27.5-7.6-14.3-4-26.7-7.4-27.5-7.6-.8-.1-5.5-1.5-10.5-2.9-7.9-2.3-16.5-4.7-21.6-5.9-.8-.2-7.4-2.1-14.5-4.1-7.1-2-13.6-3.8-14.4-4-.8-.1-16.3-4.4-34.4-9.4-18.1-5.1-33-9.1-33.1-8.9-.2.2-8 13.1-17.4 28.8-9.4 15.7-17.5 29-18.1 29.7-.5.7-1 1.4-1 1.7 0 .3-3.1 5.7-7 12.1-3.8 6.4-7 12-7 12.5 0 .4-.4 1-.8 1.2-.4.1-6.7 10.3-14 22.5-7.3 12.3-13.4 22.3-13.5 22.3-.7-.1-105.1-35.4-114.7-38.8-17.2-6.1-42.2-15.2-44.5-16.2-1.1-.5-6.5-2.5-12-4.5-10.5-3.9-21-7.9-26-10-1.6-.7-6.1-2.5-10-4-3.8-1.4-7.9-3-9-3.5-1.1-.5-7.6-3.2-14.5-6.1-18.2-7.4-28.9-12.1-54.5-23.9-25.4-11.7-55.6-28.1-73.3-39.8-46.8-31.2-55.2-56.1-23.9-70.6 5.5-2.5 16.5-5.9 23.2-7.1 5.1-.9 14.8-2.3 19.5-2.9 21.8-2.6 65-2.7 105.5-.2 10.2.7 24.1 1.8 26.4 2.2 1.4.2 6.3.6 11 .9 4.7.4 9.7.8 11.1 1 1.4.2 5.2.7 8.5 1 3.3.4 7.6.8 9.5 1.1 1.9.2 6 .6 9 1 3 .3 6.9.7 8.5 1 1.7.3 5 .7 7.5 1 5.9.6 11 1.3 13.5 1.8 1.1.2 4.5.7 7.5 1 3 .4 6.6.8 8 1.1 1.4.2 6.1.9 10.5 1.5s9.1 1.3 10.4 1.5c1.3.2 4.5.7 7 1.1 2.5.4 5.5.8 6.6 1 3.1.6 13.5 2.2 18.5 2.9 2.5.3 5.2.8 6 1 .8.2 3.3.7 5.5 1 2.3.3 5.2.8 6.5 1 1.4.3 3.9.7 5.5 1 1.7.3 5.4 1 8.3 1.6 3 .6 5.5.9 5.7.7.2-.2 18.9-28.7 23.5-35.8.5-.8 2-3.1 3.3-5 1.2-1.9 9.9-15.2 19.2-29.5 21.6-33.4 32.6-50.2 38.4-59 2.5-3.9 5-7.8 5.6-8.7 3-5.2 22.1-33.8 22.5-33.8.3 0 2.1.5 4 1z"/></svg>