<svg version="1" xmlns="http://www.w3.org/2000/svg" width="413.333" height="413.333" viewBox="0 0 310.000000 310.000000"><path d="M216.5 3.4c-3.6 3.6-4.1 6.9-1.6 11.2l2.1 3.5-3.6 14.7c-2 8.1-3.7 14.8-3.9 15-.1.2-3.3-.4-7.1-1.2-21.3-4.7-47.7-4.7-55.1 0-1.1.7-4.7 6.4-7.8 12.6-3.2 6.2-8.1 15.8-11 21.3-4.7 8.9-9.8 18.8-28.6 55.3l-5.3 10.4-39.8 39c-42.6 41.8-42 41-38 46.9 7.1 10.6 35.5 25.7 76.7 40.5 15 5.5 18.1 6.3 19 5.1.5-.8 3.9-6.7 7.4-13.1 3.6-6.4 7.1-11.6 7.8-11.6 2.3 0 50.7 14 51.6 14.9.5.5 1.5 7.1 2.3 14.7.8 7.8 2 14.4 2.7 15 .7.6 4.4 1.7 8.2 2.3 48.6 8.7 73.5 11.3 87.2 9.1 16.7-2.6 17.5-3.9 12.7-18.7-1.9-5.9-10-30.6-17.9-54.8l-14.4-44 1.3-54.5c1.2-51.6 1.2-54.7-.5-58-4.3-8.6-20.5-20-37.1-26.2-5.9-2.2-8.8-3.8-8.8-4.8.1-.8 1.6-7.6 3.4-15 2.8-11.5 3.7-13.7 5.7-14.7 6.2-3.2 7.9-10.4 3.4-14.8-3.2-3.3-7.8-3.3-11-.1zm-16.3 102c11.4 5.4 18.4 17.3 17.5 29.6-1.6 22.7-24.8 36-44.9 25.9-10-5.1-15.9-14.1-16.6-25.5-.6-9.4 1.5-15.7 7.5-22.4 4.6-5.1 10.1-8.6 15.8-10.1 5.5-1.5 14.7-.3 20.7 2.5zM130.5 199c13 2.6 65.6 16.8 82 22.2 4.7 1.6 5.2 2.8 5.5 16.8.1 5.2.5 12.2.9 15.5l.6 5.9 10.3 4.3c13.9 5.7 31.4 14.6 37.4 18.9 2.7 2 5.6 5 6.4 6.6 1.5 2.9 1.5 3.2-.5 5.2-3 2.9-17.3 3.4-33 1.1-15.1-2.3-44.2-8.2-45.2-9.2-.5-.5-1.1-6.3-1.5-13.1-.4-6.8-1.2-12.6-1.8-13.1-.6-.4-6.7-2.4-13.6-4.3-6.9-2-22.5-6.4-34.7-9.8-12.2-3.4-22.8-6-23.5-5.7-.8.2-3.6 4.4-6.3 9.2-7.7 13.8-6.5 13.1-16.5 9.7-28.4-9.8-48.9-19.2-55.7-25.8-4.9-4.6-5-5.8-1.1-8.7 4.9-3.7 29-3.3 52.8.9 6.7 1.1 8.6 1.2 9.5.2.7-.7 5.1-7.5 10-15.1 6.4-9.9 9.2-13.6 10.4-13.3.9.3 4.3 1 7.6 1.6z"/></svg>